# xmcd
#
# Track frame offsets:
#  150
#  16436
#  36386
#  51518
#  74013
#  94363
#  113437
#  135309
#  158270
#  179192
#  202257
#  218383
#
# Disc length: 3192 seconds
#
# Revision: 0
# Processed by: cddbd v1.5.1PL2 Copyright (c) Steve Scherf et al.
# Submitted via: Collectorz.com_Music_Collector 6.11
#
DISCID=ae0c760c
DTITLE=Adams, Johnny - The Great Johnny Adams Blues Album
DYEAR=2005
DGENRE=Blues
TTITLE0=Not Trustworthy (A Lyin' Woman)
TTITLE1=My Heart Is Hangin' Heavy
TTITLE2=Laughin' And Clownin'
TTITLE3=Danger Zone
TTITLE4=Imitation Of Love
TTITLE5=Garbage Man
TTITLE6=Roadblock
TTITLE7=Scarred Knees
TTITLE8=Fortune Teller
TTITLE9=Room With A View
TTITLE10=My Baby's Quit Me
TTITLE11=This Time I'm Gone For Good
EXTD=
EXTT0=
EXTT1=
EXTT2=
EXTT3=
EXTT4=
EXTT5=
EXTT6=
EXTT7=
EXTT8=
EXTT9=
EXTT10=
EXTT11=
PLAYORDER=
